<mxfile host="app.diagrams.net" modified="2021-01-17T09:55:15.791Z" agent="5.0 (Windows NT 10.0; Win64; x64) AppleWebKit/537.36 (KHTML, like Gecko) Chrome/81.0.4044.142 Safari/537.36" etag="xiVfqPmtQDbIzF6icR_c" version="14.2.4" type="github">
  <diagram id="C5RBs43oDa-KdzZeNtuy" name="Page-1">
    <mxGraphModel dx="1157" dy="643" grid="1" gridSize="10" guides="1" tooltips="1" connect="1" arrows="1" fold="1" page="1" pageScale="1" pageWidth="827" pageHeight="1169" math="0" shadow="0">
      <root>
        <mxCell id="WIyWlLk6GJQsqaUBKTNV-0" />
        <mxCell id="WIyWlLk6GJQsqaUBKTNV-1" parent="WIyWlLk6GJQsqaUBKTNV-0" />
        <mxCell id="9rKtuuhP7Hi6LasD9au0-0" value="Frontend" style="shape=umlLifeline;perimeter=lifelinePerimeter;whiteSpace=wrap;html=1;container=1;collapsible=0;recursiveResize=0;outlineConnect=0;" vertex="1" parent="WIyWlLk6GJQsqaUBKTNV-1">
          <mxGeometry x="210" y="20" width="100" height="580" as="geometry" />
        </mxCell>
        <mxCell id="9rKtuuhP7Hi6LasD9au0-53" value="" style="shape=umlDestroy;whiteSpace=wrap;html=1;strokeWidth=3;" vertex="1" parent="9rKtuuhP7Hi6LasD9au0-0">
          <mxGeometry x="35" y="565" width="30" height="30" as="geometry" />
        </mxCell>
        <mxCell id="9rKtuuhP7Hi6LasD9au0-1" value="Datenbank" style="shape=umlLifeline;perimeter=lifelinePerimeter;whiteSpace=wrap;html=1;container=1;collapsible=0;recursiveResize=0;outlineConnect=0;" vertex="1" parent="WIyWlLk6GJQsqaUBKTNV-1">
          <mxGeometry x="620" y="20" width="140" height="580" as="geometry" />
        </mxCell>
        <mxCell id="9rKtuuhP7Hi6LasD9au0-33" value="" style="html=1;points=[];perimeter=orthogonalPerimeter;" vertex="1" parent="9rKtuuhP7Hi6LasD9au0-1">
          <mxGeometry x="65" y="110" width="10" height="30" as="geometry" />
        </mxCell>
        <mxCell id="9rKtuuhP7Hi6LasD9au0-2" value="Backend" style="shape=umlLifeline;perimeter=lifelinePerimeter;whiteSpace=wrap;html=1;container=1;collapsible=0;recursiveResize=0;outlineConnect=0;" vertex="1" parent="WIyWlLk6GJQsqaUBKTNV-1">
          <mxGeometry x="395" y="20" width="100" height="580" as="geometry" />
        </mxCell>
        <mxCell id="9rKtuuhP7Hi6LasD9au0-3" value="Participant" style="shape=umlLifeline;participant=umlActor;perimeter=lifelinePerimeter;whiteSpace=wrap;html=1;container=1;collapsible=0;recursiveResize=0;verticalAlign=top;spacingTop=36;outlineConnect=0;size=40;" vertex="1" parent="WIyWlLk6GJQsqaUBKTNV-1">
          <mxGeometry x="60" y="20" width="20" height="580" as="geometry" />
        </mxCell>
        <mxCell id="9rKtuuhP7Hi6LasD9au0-7" value="" style="html=1;points=[];perimeter=orthogonalPerimeter;" vertex="1" parent="WIyWlLk6GJQsqaUBKTNV-1">
          <mxGeometry x="255" y="90" width="10" height="470" as="geometry" />
        </mxCell>
        <mxCell id="9rKtuuhP7Hi6LasD9au0-8" value="Startet Survey, &lt;br&gt;das ihm zugewiesen wurde" style="html=1;verticalAlign=bottom;startArrow=oval;endArrow=block;startSize=8;" edge="1" target="9rKtuuhP7Hi6LasD9au0-7" parent="WIyWlLk6GJQsqaUBKTNV-1">
          <mxGeometry y="-10" relative="1" as="geometry">
            <mxPoint x="70" y="90" as="sourcePoint" />
            <mxPoint as="offset" />
          </mxGeometry>
        </mxCell>
        <mxCell id="9rKtuuhP7Hi6LasD9au0-10" value="" style="html=1;points=[];perimeter=orthogonalPerimeter;" vertex="1" parent="WIyWlLk6GJQsqaUBKTNV-1">
          <mxGeometry x="440" y="110" width="10" height="460" as="geometry" />
        </mxCell>
        <mxCell id="9rKtuuhP7Hi6LasD9au0-11" value="Starte Survey" style="html=1;verticalAlign=bottom;endArrow=block;entryX=0;entryY=0;" edge="1" target="9rKtuuhP7Hi6LasD9au0-10" parent="WIyWlLk6GJQsqaUBKTNV-1">
          <mxGeometry relative="1" as="geometry">
            <mxPoint x="265" y="110" as="sourcePoint" />
          </mxGeometry>
        </mxCell>
        <mxCell id="9rKtuuhP7Hi6LasD9au0-27" value="loop" style="shape=umlFrame;whiteSpace=wrap;html=1;" vertex="1" parent="WIyWlLk6GJQsqaUBKTNV-1">
          <mxGeometry y="320" width="710" height="160" as="geometry" />
        </mxCell>
        <mxCell id="9rKtuuhP7Hi6LasD9au0-34" value="fetch data for survey" style="html=1;verticalAlign=bottom;endArrow=block;entryX=0;entryY=0;" edge="1" target="9rKtuuhP7Hi6LasD9au0-33" parent="WIyWlLk6GJQsqaUBKTNV-1">
          <mxGeometry relative="1" as="geometry">
            <mxPoint x="450" y="130" as="sourcePoint" />
          </mxGeometry>
        </mxCell>
        <mxCell id="9rKtuuhP7Hi6LasD9au0-35" value="return" style="html=1;verticalAlign=bottom;endArrow=open;dashed=1;endSize=8;exitX=0;exitY=0.95;" edge="1" source="9rKtuuhP7Hi6LasD9au0-33" parent="WIyWlLk6GJQsqaUBKTNV-1" target="9rKtuuhP7Hi6LasD9au0-2">
          <mxGeometry relative="1" as="geometry">
            <mxPoint x="450" y="206" as="targetPoint" />
          </mxGeometry>
        </mxCell>
        <mxCell id="9rKtuuhP7Hi6LasD9au0-37" value="store answer" style="edgeStyle=orthogonalEdgeStyle;html=1;align=left;spacingLeft=2;endArrow=block;rounded=0;entryX=1;entryY=0;" edge="1" parent="WIyWlLk6GJQsqaUBKTNV-1">
          <mxGeometry relative="1" as="geometry">
            <mxPoint x="450" y="290" as="sourcePoint" />
            <Array as="points">
              <mxPoint x="470" y="290" />
            </Array>
            <mxPoint x="450" y="310" as="targetPoint" />
          </mxGeometry>
        </mxCell>
        <mxCell id="9rKtuuhP7Hi6LasD9au0-23" value="" style="html=1;points=[];perimeter=orthogonalPerimeter;" vertex="1" parent="WIyWlLk6GJQsqaUBKTNV-1">
          <mxGeometry x="65" y="215" width="10" height="50" as="geometry" />
        </mxCell>
        <mxCell id="9rKtuuhP7Hi6LasD9au0-12" value="return first Item" style="html=1;verticalAlign=bottom;endArrow=open;dashed=1;endSize=8;" edge="1" parent="WIyWlLk6GJQsqaUBKTNV-1">
          <mxGeometry relative="1" as="geometry">
            <mxPoint x="259.92857142857133" y="210" as="targetPoint" />
            <mxPoint x="440" y="210" as="sourcePoint" />
            <Array as="points" />
          </mxGeometry>
        </mxCell>
        <mxCell id="9rKtuuhP7Hi6LasD9au0-18" value="return first Item" style="html=1;verticalAlign=bottom;endArrow=open;dashed=1;endSize=8;exitX=0;exitY=0.95;" edge="1" parent="WIyWlLk6GJQsqaUBKTNV-1">
          <mxGeometry relative="1" as="geometry">
            <mxPoint x="69.92857142857133" y="222" as="targetPoint" />
            <mxPoint x="255" y="222" as="sourcePoint" />
            <Array as="points" />
          </mxGeometry>
        </mxCell>
        <mxCell id="9rKtuuhP7Hi6LasD9au0-20" value="return answer" style="html=1;verticalAlign=bottom;endArrow=block;entryX=0;entryY=0;" edge="1" parent="WIyWlLk6GJQsqaUBKTNV-1">
          <mxGeometry relative="1" as="geometry">
            <mxPoint x="265" y="275" as="sourcePoint" />
            <mxPoint x="440" y="275.0000000000002" as="targetPoint" />
          </mxGeometry>
        </mxCell>
        <mxCell id="9rKtuuhP7Hi6LasD9au0-19" value="submit answer" style="html=1;verticalAlign=bottom;startArrow=circle;startFill=1;endArrow=open;startSize=6;endSize=8;" edge="1" parent="WIyWlLk6GJQsqaUBKTNV-1">
          <mxGeometry width="80" relative="1" as="geometry">
            <mxPoint x="69.92857142857133" y="265" as="sourcePoint" />
            <mxPoint x="259.5" y="265" as="targetPoint" />
            <Array as="points">
              <mxPoint x="70" y="265" />
            </Array>
          </mxGeometry>
        </mxCell>
        <mxCell id="9rKtuuhP7Hi6LasD9au0-24" value="make selection" style="text;html=1;strokeColor=none;fillColor=none;align=center;verticalAlign=middle;whiteSpace=wrap;rounded=0;" vertex="1" parent="WIyWlLk6GJQsqaUBKTNV-1">
          <mxGeometry x="10" y="235" width="40" height="20" as="geometry" />
        </mxCell>
        <mxCell id="9rKtuuhP7Hi6LasD9au0-38" value="select first item by start logic" style="edgeStyle=orthogonalEdgeStyle;html=1;align=left;spacingLeft=2;endArrow=block;rounded=0;entryX=1;entryY=0;" edge="1" parent="WIyWlLk6GJQsqaUBKTNV-1">
          <mxGeometry relative="1" as="geometry">
            <mxPoint x="450" y="170" as="sourcePoint" />
            <Array as="points">
              <mxPoint x="470" y="170" />
            </Array>
            <mxPoint x="450" y="190" as="targetPoint" />
          </mxGeometry>
        </mxCell>
        <mxCell id="9rKtuuhP7Hi6LasD9au0-39" value="select next question by adaptation logic" style="edgeStyle=orthogonalEdgeStyle;html=1;align=left;spacingLeft=2;endArrow=block;rounded=0;entryX=1;entryY=0;" edge="1" parent="WIyWlLk6GJQsqaUBKTNV-1">
          <mxGeometry relative="1" as="geometry">
            <mxPoint x="450" y="330" as="sourcePoint" />
            <Array as="points">
              <mxPoint x="470" y="330" />
            </Array>
            <mxPoint x="450" y="350" as="targetPoint" />
          </mxGeometry>
        </mxCell>
        <mxCell id="9rKtuuhP7Hi6LasD9au0-32" value="no duplicates" style="text;html=1;strokeColor=none;fillColor=none;align=center;verticalAlign=middle;whiteSpace=wrap;rounded=0;" vertex="1" parent="WIyWlLk6GJQsqaUBKTNV-1">
          <mxGeometry x="480" y="345" width="85" height="20" as="geometry" />
        </mxCell>
        <mxCell id="9rKtuuhP7Hi6LasD9au0-41" value="return next item" style="html=1;verticalAlign=bottom;endArrow=open;dashed=1;endSize=8;" edge="1" parent="WIyWlLk6GJQsqaUBKTNV-1">
          <mxGeometry relative="1" as="geometry">
            <mxPoint x="259.92857142857133" y="364.43000000000006" as="targetPoint" />
            <mxPoint x="440" y="364.43000000000006" as="sourcePoint" />
            <Array as="points" />
          </mxGeometry>
        </mxCell>
        <mxCell id="9rKtuuhP7Hi6LasD9au0-42" value="" style="html=1;points=[];perimeter=orthogonalPerimeter;" vertex="1" parent="WIyWlLk6GJQsqaUBKTNV-1">
          <mxGeometry x="65" y="365" width="10" height="50" as="geometry" />
        </mxCell>
        <mxCell id="9rKtuuhP7Hi6LasD9au0-43" value="present question" style="html=1;verticalAlign=bottom;endArrow=open;dashed=1;endSize=8;exitX=0;exitY=0.95;" edge="1" parent="WIyWlLk6GJQsqaUBKTNV-1">
          <mxGeometry relative="1" as="geometry">
            <mxPoint x="69.92857142857133" y="372" as="targetPoint" />
            <mxPoint x="255" y="372" as="sourcePoint" />
            <Array as="points" />
          </mxGeometry>
        </mxCell>
        <mxCell id="9rKtuuhP7Hi6LasD9au0-44" value="submit answer" style="html=1;verticalAlign=bottom;startArrow=circle;startFill=1;endArrow=open;startSize=6;endSize=8;" edge="1" parent="WIyWlLk6GJQsqaUBKTNV-1">
          <mxGeometry width="80" relative="1" as="geometry">
            <mxPoint x="69.92857142857133" y="415" as="sourcePoint" />
            <mxPoint x="259.5" y="415" as="targetPoint" />
            <Array as="points">
              <mxPoint x="70" y="415" />
            </Array>
          </mxGeometry>
        </mxCell>
        <mxCell id="9rKtuuhP7Hi6LasD9au0-45" value="make selection" style="text;html=1;strokeColor=none;fillColor=none;align=center;verticalAlign=middle;whiteSpace=wrap;rounded=0;" vertex="1" parent="WIyWlLk6GJQsqaUBKTNV-1">
          <mxGeometry x="10" y="385" width="40" height="20" as="geometry" />
        </mxCell>
        <mxCell id="9rKtuuhP7Hi6LasD9au0-46" value="store answer" style="edgeStyle=orthogonalEdgeStyle;html=1;align=left;spacingLeft=2;endArrow=block;rounded=0;entryX=1;entryY=0;" edge="1" parent="WIyWlLk6GJQsqaUBKTNV-1">
          <mxGeometry relative="1" as="geometry">
            <mxPoint x="450" y="445" as="sourcePoint" />
            <Array as="points">
              <mxPoint x="470" y="445" />
            </Array>
            <mxPoint x="450" y="465" as="targetPoint" />
          </mxGeometry>
        </mxCell>
        <mxCell id="9rKtuuhP7Hi6LasD9au0-47" value="return answer" style="html=1;verticalAlign=bottom;endArrow=block;entryX=0;entryY=0;" edge="1" parent="WIyWlLk6GJQsqaUBKTNV-1">
          <mxGeometry relative="1" as="geometry">
            <mxPoint x="265" y="430" as="sourcePoint" />
            <mxPoint x="440" y="430.0000000000002" as="targetPoint" />
          </mxGeometry>
        </mxCell>
        <mxCell id="9rKtuuhP7Hi6LasD9au0-49" value="" style="html=1;points=[];perimeter=orthogonalPerimeter;" vertex="1" parent="WIyWlLk6GJQsqaUBKTNV-1">
          <mxGeometry x="685" y="505" width="10" height="25" as="geometry" />
        </mxCell>
        <mxCell id="9rKtuuhP7Hi6LasD9au0-50" value="store completed survey" style="html=1;verticalAlign=bottom;startArrow=oval;endArrow=block;startSize=8;" edge="1" target="9rKtuuhP7Hi6LasD9au0-49" parent="WIyWlLk6GJQsqaUBKTNV-1">
          <mxGeometry relative="1" as="geometry">
            <mxPoint x="450" y="505" as="sourcePoint" />
          </mxGeometry>
        </mxCell>
        <mxCell id="9rKtuuhP7Hi6LasD9au0-51" value="survey finished" style="html=1;verticalAlign=bottom;startArrow=oval;startFill=1;endArrow=block;startSize=8;exitX=-0.1;exitY=0.899;exitDx=0;exitDy=0;exitPerimeter=0;" edge="1" parent="WIyWlLk6GJQsqaUBKTNV-1" source="9rKtuuhP7Hi6LasD9au0-10" target="9rKtuuhP7Hi6LasD9au0-0">
          <mxGeometry width="60" relative="1" as="geometry">
            <mxPoint x="340" y="590" as="sourcePoint" />
            <mxPoint x="370" y="490" as="targetPoint" />
          </mxGeometry>
        </mxCell>
        <mxCell id="9rKtuuhP7Hi6LasD9au0-52" value="inform that survey is over" style="html=1;verticalAlign=bottom;endArrow=open;dashed=1;endSize=8;exitX=0;exitY=0.95;" edge="1" parent="WIyWlLk6GJQsqaUBKTNV-1">
          <mxGeometry relative="1" as="geometry">
            <mxPoint x="69.92857142857133" y="540" as="targetPoint" />
            <mxPoint x="255" y="540" as="sourcePoint" />
            <Array as="points" />
          </mxGeometry>
        </mxCell>
        <mxCell id="9rKtuuhP7Hi6LasD9au0-54" value="close session" style="edgeStyle=orthogonalEdgeStyle;html=1;align=left;spacingLeft=2;endArrow=block;rounded=0;entryX=1;entryY=0;" edge="1" parent="WIyWlLk6GJQsqaUBKTNV-1">
          <mxGeometry relative="1" as="geometry">
            <mxPoint x="450" y="540" as="sourcePoint" />
            <Array as="points">
              <mxPoint x="470" y="540" />
            </Array>
            <mxPoint x="450" y="560" as="targetPoint" />
          </mxGeometry>
        </mxCell>
      </root>
    </mxGraphModel>
  </diagram>
</mxfile>
